HIERARCHY
ROOT Hips
{
	OFFSET -0.001795 -0.223333 0.028219
	CHANNELS 6 Xposition Yposition Zposition Zrotation Yrotation Xrotation 
	JOINT LeftUpLeg
	{
		OFFSET 0.069520 -0.091406 -0.006815
		CHANNELS 3 Zrotation Yrotation Xrotation
		JOINT LeftLeg
		{
			OFFSET 0.034277 -0.375199 -0.004496
			CHANNELS 3 Zrotation Yrotation Xrotation
			JOINT LeftFoot
			{
				OFFSET -0.013596 -0.397961 -0.043693
				CHANNELS 3 Zrotation Yrotation Xrotation
				JOINT LeftToe
				{
					OFFSET 0.026358 -0.055791 0.119288
					CHANNELS 3 Zrotation Yrotation Xrotation
					End Site
					{
						OFFSET 0.000000 0.000000 0.000000
					}
				}
			}
		}
	}
	JOINT RightUpLeg
	{
		OFFSET -0.067670 -0.090522 -0.004320
		CHANNELS 3 Zrotation Yrotation Xrotation
		JOINT RightLeg
		{
			OFFSET -0.038290 -0.382569 -0.008850
			CHANNELS 3 Zrotation Yrotation Xrotation
			JOINT RightFoot
			{
				OFFSET 0.015774 -0.398415 -0.042312
				CHANNELS 3 Zrotation Yrotation Xrotation
				JOINT RightToe
				{
					OFFSET -0.025372 -0.048144 0.123348
					CHANNELS 3 Zrotation Yrotation Xrotation
					End Site
					{
						OFFSET 0.000000 0.000000 0.000000
					}
				}
			}
		}
	}
	JOINT Spine
	{
		OFFSET -0.002533 0.108963 -0.026696
		CHANNELS 3 Zrotation Yrotation Xrotation
		JOINT Spine1
		{
			OFFSET 0.005487 0.135180 0.001092
			CHANNELS 3 Zrotation Yrotation Xrotation
			JOINT Spine2
			{
				OFFSET 0.001457 0.052922 0.025425
				CHANNELS 3 Zrotation Yrotation Xrotation
				JOINT Neck
				{
					OFFSET -0.002778 0.213870 -0.042857
					CHANNELS 3 Zrotation Yrotation Xrotation
					JOINT Head
					{
						OFFSET 0.005152 0.064970 0.051349
						CHANNELS 3 Zrotation Yrotation Xrotation
						End Site
						{
							OFFSET 0.000000 0.000000 0.000000
						}
					}
				}
				JOINT LeftShoulder
				{
					OFFSET 0.078845 0.121749 -0.034090
					CHANNELS 3 Zrotation Yrotation Xrotation
					JOINT LeftArm
					{
						OFFSET 0.090977 0.030469 -0.008868
						CHANNELS 3 Zrotation Yrotation Xrotation
						JOINT LeftForeArm
						{
							OFFSET 0.259612 -0.012772 -0.027456
							CHANNELS 3 Zrotation Yrotation Xrotation
							JOINT LeftHand
							{
								OFFSET 0.249234 0.008986 -0.001171
								CHANNELS 3 Zrotation Yrotation Xrotation
								End Site
								{
									OFFSET 0.000000 0.000000 0.000000
								}
							}
						}
					}
				}
				JOINT RightShoulder
				{
					OFFSET -0.081759 0.118833 -0.038615
					CHANNELS 3 Zrotation Yrotation Xrotation
					JOINT RightArm
					{
						OFFSET -0.096012 0.032551 -0.009143
						CHANNELS 3 Zrotation Yrotation Xrotation
						JOINT RightForeArm
						{
							OFFSET -0.253742 -0.013329 -0.021401
							CHANNELS 3 Zrotation Yrotation Xrotation
							JOINT RightHand
							{
								OFFSET -0.255298 0.007772 -0.005559
								CHANNELS 3 Zrotation Yrotation Xrotation
								End Site
								{
									OFFSET 0.000000 0.000000 0.000000
								}
							}
						}
					}
				}
			}
		}
	}
}
MOTION
Frames: 8
Frame Time: 0.050000
0.000000 0.828611 0.000000 -1.766851 14.068843 13.831443 35.514217 0.280736 -20.243211 -21.271713 7.196790 39.808171 13.932931 27.402604 8.293147 0.000000 0.000000 0.000000 -31.157635 -9.367350 -39.772077 14.033194 -8.574372 43.759130 -0.251276 -3.249187 7.896642 0.000000 0.000000 0.000000 3.178726 0.205851 -7.228892 1.176278 0.309870 -16.042985 -8.278082 -22.342579 22.833395 0.361965 -1.194979 -10.741762 0.000000 0.000000 0.000000 -1.940693 -17.015285 7.025379 -13.224830 -51.726936 2.803003 135.438388 -33.812517 -58.088549 0.000000 0.000000 0.000000 3.036909 7.368969 1.776231 20.411971 35.064180 1.063278 -144.834694 16.508354 -46.513115 0.000000 0.000000 0.000000 
0.006528 0.822218 -0.006529 -2.575444 13.552992 12.920496 37.433205 0.635607 -20.658804 -22.498246 8.090959 41.021031 13.752187 27.152474 7.872301 0.000000 0.000000 0.000000 -30.785623 -9.140196 -39.786066 14.330700 -9.029637 45.646557 -0.573147 -3.332784 5.702868 0.000000 0.000000 0.000000 2.196381 0.159494 -5.721369 2.377228 -0.040559 -16.552828 -10.189720 -28.864263 22.742685 -2.535452 0.369838 -9.497232 0.000000 0.000000 0.000000 -0.211559 -17.195594 7.062807 -9.954734 -53.592782 2.708009 124.309879 -30.087588 -38.346623 0.000000 0.000000 0.000000 4.781662 8.914818 1.385233 23.223079 37.230956 1.786880 -149.896578 19.093529 -63.098432 0.000000 0.000000 0.000000 
0.011537 0.819077 -0.012373 -2.779523 12.891069 11.654674 38.293094 1.175166 -21.783212 -23.349385 8.760396 42.024396 13.249151 26.658431 4.780755 0.000000 0.000000 0.000000 -30.500935 -8.239982 -37.320828 14.685363 -9.107098 45.392584 -1.460479 -4.176793 1.816668 0.000000 0.000000 0.000000 0.729854 0.117117 -3.803311 2.703227 -0.100781 -17.639612 -10.124859 -30.805953 22.553036 -4.100093 1.414092 -8.878225 0.000000 0.000000 0.000000 -1.791398 -17.216086 7.808974 -16.244372 -54.685481 5.537782 120.217515 -28.962402 -31.821876 0.000000 0.000000 0.000000 5.186031 9.898359 1.345037 27.135788 37.799193 2.748949 -155.604504 21.395220 -81.235434 0.000000 0.000000 0.000000 
0.014294 0.812752 -0.015456 -1.709572 14.518386 10.238936 38.090968 1.546676 -24.603208 -23.681959 8.907885 44.346367 12.679624 25.967859 2.185730 0.000000 0.000000 0.000000 -30.636647 -7.566192 -32.734628 13.612328 -8.992343 46.067904 -2.789569 -5.834437 -4.011503 0.000000 0.000000 0.000000 -0.271223 0.104837 -2.804079 1.248929 0.355201 -17.465436 -8.382514 -24.947449 21.976890 -1.019405 -0.353329 -7.845677 0.000000 0.000000 0.000000 -6.416466 -15.440663 7.844461 -32.924458 -53.229569 10.995985 135.478237 -36.873717 -59.349693 0.000000 0.000000 0.000000 5.902893 8.795677 1.569860 25.364687 35.844188 2.387566 -158.031349 24.884361 -92.625265 0.000000 0.000000 0.000000 
0.015333 0.810196 -0.016595 -0.223565 17.587304 8.847965 37.283685 1.507926 -27.442800 -23.929628 8.551116 46.061285 11.899436 24.675191 1.027959 0.000000 0.000000 0.000000 -30.469955 -7.046364 -27.988855 11.179000 -8.401808 47.102165 -3.490360 -6.601105 -9.039446 0.000000 0.000000 0.000000 -1.670308 0.100449 -1.760509 -0.110195 0.798347 -16.398888 -6.613362 -17.427620 21.285386 2.737402 -2.466768 -8.163399 0.000000 0.000000 0.000000 -8.886923 -13.925862 6.498067 -44.769836 -47.486604 12.350802 154.667170 -42.416737 -102.038768 0.000000 0.000000 0.000000 5.842622 7.875692 2.238118 21.277427 32.519789 1.290936 -154.661458 29.587953 -90.259723 0.000000 0.000000 0.000000 
0.014908 0.810865 -0.016713 1.129935 22.269053 7.332498 36.319350 0.940712 -29.554810 -24.142392 7.510288 45.986070 11.049740 23.142937 0.461563 0.000000 0.000000 0.000000 -30.069677 -6.734990 -23.170512 8.312632 -7.897924 48.261216 -3.662752 -6.625492 -12.477234 0.000000 0.000000 0.000000 -2.811539 0.075697 -0.217370 -1.105010 1.177893 -15.222782 -5.386452 -9.350630 20.937829 6.846731 -4.485937 -9.461034 0.000000 0.000000 0.000000 -9.511971 -13.496727 4.774655 -48.853471 -39.104432 8.939659 171.426057 -41.214064 -145.160133 0.000000 0.000000 0.000000 3.301322 7.654445 2.991604 17.675174 27.394831 0.236382 -142.954071 34.388340 -72.306169 0.000000 0.000000 0.000000 
0.013569 0.811960 -0.016640 1.817093 27.406602 6.190117 35.357435 0.127632 -31.029149 -23.642246 5.994283 45.087792 10.107887 21.319437 -0.572909 0.000000 0.000000 0.000000 -29.432946 -6.572901 -19.196108 6.577884 -8.272500 49.269296 -3.741579 -6.851799 -15.094572 0.000000 0.000000 0.000000 -3.075910 0.036529 1.024567 -1.812923 1.484833 -14.568363 -4.710878 -3.017767 20.914487 10.195492 -5.903360 -10.732073 0.000000 0.000000 0.000000 -9.404670 -13.492424 3.368226 -47.946097 -32.348353 5.332251 178.436691 -38.054552 -169.766497 0.000000 0.000000 0.000000 0.221692 8.878839 3.452060 15.265115 21.690508 -0.389582 -124.718026 35.424636 -47.717483 0.000000 0.000000 0.000000 
0.011689 0.812316 -0.016807 1.917728 31.993612 5.114816 34.772536 -0.634461 -31.820314 -22.518813 4.419885 43.535271 9.233319 19.500855 -0.938009 0.000000 0.000000 0.000000 -29.000765 -6.560470 -16.128212 6.072966 -9.371628 50.095250 -3.606083 -6.697929 -15.830695 0.000000 0.000000 0.000000 -2.721709 -0.006872 1.761095 -2.243839 1.692065 -13.789163 -4.412539 1.991881 21.098861 13.185074 -7.066812 -12.181203 0.000000 0.000000 0.000000 -8.773736 -13.667647 2.397030 -45.671031 -29.141348 3.467197 -179.574271 -36.042907 179.046687 0.000000 0.000000 0.000000 -1.368353 10.649196 3.950511 11.893957 17.323824 -0.740228 -104.280155 32.865293 -27.441756 0.000000 0.000000 0.000000 
